<svg id="Calque_1" data-name="Calque 1" xmlns="http://www.w3.org/2000/svg" viewBox="0 0 155.9055 72.8707"><defs><style>.cls-1{fill:#fff;}</style></defs><title>logo_BDF_2019 _blanc_RVB</title><path class="cls-1" d="M81.169,28.27a5.5343,5.5343,0,0,0-2.01-3.68,7.1851,7.1851,0,0,0-3.5158-1.2545,43.7123,43.7123,0,0,0-5.1029.0429c-.1467.1073-.1244.194-.0152.3488s.2378-.1163.5006.4113a2.343,2.343,0,0,1,.2495,1.0113l.0931,8.3622s.0392,1.1776-.2478,1.44-.5562.3443-.5534.5008c.0036.2512.3522.2244.3522.2244l5.1728-.07a7.32,7.32,0,0,0,2.4661-.8074,5.2626,5.2626,0,0,0,2.0355-2.0172A7.3414,7.3414,0,0,0,81.169,28.27Zm-4.152,5.373a4.5543,4.5543,0,0,1-3.2137.2637c-.4282-.2315-.4113-.4783-.4113-.4783l-.0993-8.2736a3.525,3.525,0,0,1,1.4012-.2137,4.5648,4.5648,0,0,1,2.8015.7573,4.1522,4.1522,0,0,1,1.698,3.5435C79.2426,32.0236,78.2044,33.1154,77.017,33.6429Z"/><path class="cls-1" d="M46.923,36.8011c-.1029-.1011-.19-.0107-.5231.0492-.4891.0893-1.6193-.5642-1.99-.735s-1.4262-.7743-1.4262-.7743A7.1486,7.1486,0,0,0,45.1508,33.21a7.3074,7.3074,0,0,0,.9085-3.5606,6.3685,6.3685,0,0,0-3.29-5.8549,7.7315,7.7315,0,0,0-6.4174.18,6.1349,6.1349,0,0,0-3.0161,5.5188,6.2684,6.2684,0,0,0,3.8691,6.1751,7.57,7.57,0,0,0,3.4979.3666s2.4769,1.4333,2.89,1.6005a4.8976,4.8976,0,0,0,1.5952.6054c.68-.0286,1.673-1.1061,1.673-1.1061S47.03,36.9066,46.923,36.8011Zm-6.9244-2.3892a4.1705,4.1705,0,0,1-3.7663-1.8446,5.7348,5.7348,0,0,1,.4275-6.4157,3.5592,3.5592,0,0,1,2.847-1.31,4.122,4.122,0,0,1,4.4019,3.92C44.2879,31.5139,42.9306,34.2876,39.9986,34.4119Z"/><path class="cls-1" d="M21.7165,35.8247h3.1653a.1724.1724,0,0,0,.1645-.2209c-.0285-.2056-.4184.0125-.692-.6259a3.3039,3.3039,0,0,1-.21-.9022l-.0332-6.5023,7.9769,8.6241s.2468.1422.3318.0537a.4428.4428,0,0,0,.0858-.2638l-.0322-10.8a2.9684,2.9684,0,0,1,.1994-.989c.1673-.3147.5275-.2762.5482-.4739.0187-.1833-.0985-.1752-.0985-.1752L29.76,23.5478s-.1251.0188-.1315.19c-.0107.2414.406,0,.626.34a3.3483,3.3483,0,0,1,.32.7681L30.66,31.834l-8.076-8.7888a.2873.2873,0,0,0-.2406-.0661c-.0885.0126-.1529.1976-.1529.1976l.0974,11.1422a1.6309,1.6309,0,0,1-.2637.8566c-.2164.28-.4283.2924-.4167.4927A.1505.1505,0,0,0,21.7165,35.8247Z"/><path class="cls-1" d="M46.1522,23.5371l3.3621-.01a.1146.1146,0,0,1,.1448.1092c.0081.2038-.2307.2324-.4721.4738s-.2861,1.2626-.2861,1.2626L48.967,31.77a2.8428,2.8428,0,0,0,.3542,1.42,2.8726,2.8726,0,0,0,4.6451.0054,3.3661,3.3661,0,0,0,.3505-1.5012c.0886-1.2054-.0662-6.8458-.0662-6.8458s-.09-.7546-.3621-.8691c-.3487-.1529-.447-.3-.3836-.431a.1907.1907,0,0,1,.2289-.118l3.2325.0089a.1769.1769,0,0,1,.12.2227c-.0643.2262-.3406.1377-.5177.5124a3.63,3.63,0,0,0-.2289,1.0014l-.0116,6.6382a4.1768,4.1768,0,0,1-.67,2.3938A4.5155,4.5155,0,0,1,51.857,36.06a4.9331,4.9331,0,0,1-3.9558-1.51,3.62,3.62,0,0,1-.9559-2.3185l-.1216-6.8351a3.6788,3.6788,0,0,0-.2494-1.16c-.1583-.3076-.5392-.2969-.5741-.5222A.1485.1485,0,0,1,46.1522,23.5371Z"/><path class="cls-1" d="M57.6851,23.4342s-.2655.0868-.0912.2638.4927.1592.6018.6206.1583.844.1583.844l.0313,8.7915a3.4,3.4,0,0,1-.2263,1.1105c-.1752.3049-.5606.2075-.5257.43.0375.2128.3031.2352.3031.2352l7.029-.0412a8.2043,8.2043,0,0,0,.1565-.9477c.1216-.8361.2655-1.5988-.0161-1.5622-.3479.0456-.1484.3077-.616.5938a1.5678,1.5678,0,0,1-.91.26L61.175,34.08a1.0478,1.0478,0,0,1-.5749-.1923c-.1377-.118-.1323-.6187-.1323-.6187l-.018-3.203s1.9136-.0348,2.5628.0143a1.6253,1.6253,0,0,1,1.1186.35c.1644.1547.2449.47.42.46.12-.01.1708-.2755.1708-.2755l-.0179-2.9131s-.0268-.237-.2038-.1717-.322.3648-.474.54a1.3045,1.3045,0,0,1-.66.305l-2.9338.0581s-.0572-2.4643-.0411-3.2261c.0026-.14.2306-.1842.2306-.1842l2.6173.0044s.76-.0178.9452.1485c.2529.2271.3665.6491.6607.6527.194.0027.1842-.304.1842-.304l-.0233-1.8026s.0171-.2254-.1045-.2871a1.8515,1.8515,0,0,0-.5446-.0473Z"/><path class="cls-1" d="M97.2443,29.0979l.0107,4.528a3.0718,3.0718,0,0,0,.254,1.0882c.2754.55.5919.4042.6813.5813s0,.2843-.1985.33c-.1967.0446-3.625.0116-3.625.0116s-.2933-.0081-.2539-.2531c.0376-.2261.338-.1278.6259-.5606a2.41,2.41,0,0,0,.32-1.23l-.0446-10.1417a2.3724,2.3724,0,0,0-.3077-1.208c-.3576-.4917-.61-.2593-.6366-.5848-.0179-.2182.363-.2163.363-.2163l7.4591.0188s.42-.0287.4847.0679a.8308.8308,0,0,1,.0644.3728l.0035,2.0209a.1866.1866,0,0,1-.2217.21c-.2969-.0411-.2665-.5784-.79-.768a4.5416,4.5416,0,0,0-1.2214-.1448l-2.9883-.01v4.0524l2.92.025a7.7164,7.7164,0,0,0,1.0337-.2557c.4829-.1752.51-.6715.6688-.7028.2951-.0662.2862.1878.2862.1878l-.009,3.22s-.0053.3523-.2181.3067c-.1985-.043-.27-.2074-.4936-.55-.1968-.3067-.871-.3729-.871-.3729Z"/><path class="cls-1" d="M103.4086,24.0056c-.2074-.3711-.6044-.3791-.5937-.61.0072-.1842.2736-.1985.2736-.1985l5.2971.0224a4.0473,4.0473,0,0,1,2.6592,1.385,3.6664,3.6664,0,0,1,.6581,2.3508,3.3949,3.3949,0,0,1-1.1553,2.3856,5.1764,5.1764,0,0,1-1.3841.7251.4364.4364,0,0,0,.0572.1976c.5312.7682,3.1707,4.5433,3.1707,4.5433l.9657.7842a15.4174,15.4174,0,0,1-2.5233-.0054,2.3409,2.3409,0,0,1-1.0158-.9048l-3.1761-4.8026s-.52-.6572-.3594-.94c.1037-.177.9764.1181,1.8992-.1887a1.888,1.888,0,0,0,1.3985-1.8384,1.9711,1.9711,0,0,0-1.3091-2.0038,5.4472,5.4472,0,0,0-2.5072-.0456.3657.3657,0,0,0-.1.3381l.09,8.7744a1.8679,1.8679,0,0,0,.3469.9639c.3058.3523.4238.2387.42.4471,0,.1833-.2451.1877-.2451.1877l-3.1653.0018a.202.202,0,0,1-.1717-.2342c.0232-.1593.3988-.1637.5776-.5589a2.0828,2.0828,0,0,0,.161-.8245l-.0644-8.9264A2.309,2.309,0,0,0,103.4086,24.0056Z"/><path class="cls-1" d="M147.0063,35.2748a8.6446,8.6446,0,0,1-3.46.6133,5.935,5.935,0,0,1-5.5581-3.2967,7.7789,7.7789,0,0,1-.3094-5.8237,5.9732,5.9732,0,0,1,3.68-3.6688,9.0356,9.0356,0,0,1,4.2866-.0312,3.1821,3.1821,0,0,0,.8781.1833c.2325-.01.2343-.1977.5061-.1521.1735.0287.1663.2307.1663.2307l.009,1.9118s-.0251.2655-.2433.2638c-.3165-.0019-.5042-.52-1.4932-.761a5.2648,5.2648,0,0,0-3.9343.3,4.8043,4.8043,0,0,0-2.1335,4.33,4.8548,4.8548,0,0,0,1.774,4.0318,4.307,4.307,0,0,0,3.5159.7046,4.8521,4.8521,0,0,0,2.0011-.8164.48.48,0,0,1,.3934-.2513c.1736.0108.186.4516.186.4516Z"/><path class="cls-1" d="M81.4408,23.3252s-.2646.0867-.0894.2637.4918.1592.6009.6206.1592.8441.1592.8441l.03,8.79a3.4133,3.4133,0,0,1-.2272,1.1115c-.1752.3049-.56.2074-.5257.43.0375.2127.3039.2351.3039.2351l7.0282-.0411a8.1926,8.1926,0,0,0,.1574-.9479c.1216-.8369.2664-1.6-.0179-1.562-.3469.0456-.1467.3066-.6152.5937a1.5614,1.5614,0,0,1-.91.2593L84.93,33.97a1.0358,1.0358,0,0,1-.5741-.1923c-.1377-.1171-.1323-.6179-.1323-.6179l-.0179-3.2028s1.9153-.0358,2.5626.0143a1.6152,1.6152,0,0,1,1.1177.3505c.1663.1538.2468.4694.42.4587.1216-.01.1717-.2754.1717-.2754L88.46,27.5921s-.0268-.2369-.2039-.1716-.3219.3647-.4739.54a1.3018,1.3018,0,0,1-.658.3049l-2.9347.0572s-.0572-2.4634-.0411-3.2252c.0017-.14.2306-.1833.2306-.1833l2.6163.0036s.76-.0188.9443.1484c.2557.2271.3666.6492.6635.6528.1913.0026.1824-.3049.1824-.3049l-.0215-1.8027s.0161-.2244-.1073-.2861a1.8257,1.8257,0,0,0-.5418-.0474Z"/><path class="cls-1" d="M125.507,35.3857h3.1653a.1721.1721,0,0,0,.1645-.22c-.0285-.2064-.4184.0117-.692-.6267a3.3244,3.3244,0,0,1-.211-.9023l-.0323-6.5023,7.976,8.6242s.2468.1422.3326.0537a.4426.4426,0,0,0,.0859-.2638l-.0323-10.8a2.9828,2.9828,0,0,1,.2-.989c.1663-.3147.5276-.2762.5472-.4739.0179-.1833-.0984-.1744-.0984-.1744l-3.3638-.0026s-.1252.0188-.1306.19c-.0107.2415.406,0,.6259.34a3.3964,3.3964,0,0,1,.3184.769l.0876,6.9879-8.076-8.7887a.2883.2883,0,0,0-.2415-.0662c-.0876.0125-.152.1976-.152.1976l.0984,11.1413a1.64,1.64,0,0,1-.2647.8575c-.2164.2807-.4292.2933-.4167.4927A.15.15,0,0,0,125.507,35.3857Z"/><path class="cls-1" d="M148.2563,23.0614s-.2664.0867-.0912.2638.4918.2575.6008.7189.1593.8449.1593.8449l.03,8.7906A3.4372,3.4372,0,0,1,148.73,34.79c-.1752.3049-.5615.2083-.5276.431.0394.2119.304.2343.304.2343l7.0944-.04a7.5016,7.5016,0,0,0,.1574-.9477c.1216-.837.2664-1.6-.0161-1.5622-.3488.0447-.1485.3068-.6153.5929a1.725,1.725,0,0,1-.9764.2593l-2.4053.0473a1.0391,1.0391,0,0,1-.574-.1913c-.1377-.1171-.1323-.6179-.1323-.6179l-.02-3.2038s1.9153-.0349,2.5626.0152a1.6192,1.6192,0,0,1,1.12.35c.1662.1548.3111.47.4863.46.12-.01.17-.2764.17-.2764l-.018-2.9131s-.0268-.237-.2038-.1708-.3863.3648-.5383.54a1.3064,1.3064,0,0,1-.66.3049l-2.9346.0572s-.0573-2.5627-.0411-3.3245c.0035-.14.2306-.1833.2306-.1833l2.6181.0036s.76-.0188.9443.1484c.2539.2263.4327.6492.7279.6537.1931.0017.1823-.3058.1823-.3058l-.0232-1.8027s.0178-.2244-.1038-.2861a2.2777,2.2777,0,0,0-.61-.0474Z"/><path class="cls-1" d="M9.1812,29.3572a6.4608,6.4608,0,0,0-1.6381-1.1695,3.6232,3.6232,0,0,0,1.43-1.3663,3.517,3.517,0,0,0,.2682-1.9905,3.3943,3.3943,0,0,0-3.2243-2.872C5.0055,21.9.1721,21.8918.1721,21.8918s-.1565-.0071-.1565.2342c0,.1172.4181.2781.6282.567a2.248,2.248,0,0,1,.2924,1.2787L.9406,33.659A3.7429,3.7429,0,0,1,.7922,34.73c-.212.6868-.5561.5446-.7332.7877a.2135.2135,0,0,0,.101.3479l5.4942.0438a5.133,5.133,0,0,0,3.0778-1.02,3.4839,3.4839,0,0,0,1.3246-2.92A3.95,3.95,0,0,0,9.1812,29.3572ZM3.17,23.6381s2.5072-.4139,3.3415.5276A1.9377,1.9377,0,0,1,6.07,27.1692a5.8,5.8,0,0,1-2.9006.3791Zm4.0791,9.7965c-1.0117,1.0819-3.3334.8307-3.7268.6285a.6789.6789,0,0,1-.3568-.4864V29.49s-.008-.13.5624-.1529a10.3486,10.3486,0,0,1,1.8523.0769,2.3963,2.3963,0,0,1,2.0516,1.5013A2.776,2.776,0,0,1,7.2489,33.4346Z"/><path class="cls-1" d="M21.3624,35.4992c-.0679-.1216-.3523.084-.9291-1.0793-.2244-.456-4.95-11.06-4.95-11.06s-.1735-.2369-.3362-.2486c-.1332-.0089-.2307.1976-.2307.1976l-5.0619,11.7s-.1833.3622-.4158.4346c-.3133.0965-.4367.3522-.15.4175s2.9578-.0259,2.9578-.0259.1529.0608.1091-.1985c-.051-.3165-.3711-.0983-.3442-.6921a16.7677,16.7677,0,0,1,.9567-2.39l4.4905-.0125a8.3448,8.3448,0,0,1,.8861,2.44c-.01.5123-.3916.43-.4015.6751-.0107.2289.2513.2.2513.2l3.0553-.0142S21.5439,35.79,21.3624,35.4992Zm-7.7953-4.5575,1.6855-4.157,1.6212,4.1694Z"/><path class="cls-1" d="M125.21,35.0977c-.0679-.1216-.3523.084-.9281-1.0793-.2271-.4559-4.9519-11.06-4.9519-11.06s-.1717-.2369-.3344-.2486c-.1341-.0088-.2325.1977-.2325.1977l-5.061,11.7s-.1824.3622-.4167.4346c-.3129.0966-.4363.3522-.15.4175s2.96-.0259,2.96-.0259.15.0608.1073-.1985c-.05-.3165-.37-.0983-.3433-.692a16.6792,16.6792,0,0,1,.955-2.39l4.4922-.0125a8.3685,8.3685,0,0,1,.8852,2.44c-.0107.5123-.3916.43-.4006.6751-.0107.2289.25.2.25.2l3.0545-.0142S125.3907,35.3883,125.21,35.0977ZM117.4148,30.54l1.6846-4.157,1.62,4.17Z"/><path class="cls-1" d="M88.9822,36.6366H96.985c-.0358-.1332-.07-.2647-.1019-.3961H88.8838C88.9053,36.3352,88.9393,36.4711,88.9822,36.6366Z"/><path class="cls-1" d="M70.8427,36.2405H62.8436c-.034.1314-.068.2629-.1038.3961h8.0046C70.7864,36.47,70.8177,36.3415,70.8427,36.2405Z"/><path class="cls-1" d="M53.7374,36.6366h7.3152c.042-.1323.0813-.2647.1207-.3961H53.93C53.8671,36.3746,53.8027,36.5051,53.7374,36.6366Z"/><path class="cls-1" d="M72.7187,36.2405c-.0232.1323-.0483.2638-.0733.3961H87.0705c-.0233-.1323-.0483-.2638-.0715-.3961Z"/><path class="cls-1" d="M98.67,36.6366h7.2214c-.0644-.1306-.127-.262-.1878-.3961H98.55C98.5873,36.3719,98.6284,36.5043,98.67,36.6366Z"/><path class="cls-1" d="M99.3455,38.4911h7.6237c-.0876-.1306-.1771-.262-.2629-.3961h-7.52C99.2382,38.2264,99.29,38.3588,99.3455,38.4911Z"/><path class="cls-1" d="M89.4812,38.4911h8.0546c-.0429-.1323-.0859-.2657-.127-.3961H89.37C89.4042,38.2228,89.4418,38.3543,89.4812,38.4911Z"/><path class="cls-1" d="M52.6465,38.4911h7.7256c.0554-.1323.1073-.2647.16-.3961H52.91C52.8235,38.2282,52.7368,38.3614,52.6465,38.4911Z"/><path class="cls-1" d="M87.3709,38.095H79.9073c.017.1171.0367.2494.06.3961h7.4912C87.4281,38.36,87.4013,38.2264,87.3709,38.095Z"/><path class="cls-1" d="M72.2591,38.4911h7.4256c.0241-.1485.0438-.279.0608-.3961H72.3467C72.3172,38.2264,72.29,38.36,72.2591,38.4911Z"/><path class="cls-1" d="M70.3554,38.095H62.3142c-.0411.1314-.0849.2638-.1287.3961h8.0573Q70.3018,38.2871,70.3554,38.095Z"/><path class="cls-1" d="M90.0427,40.3276h8.1547c-.0518-.1287-.0983-.2637-.1484-.3951H89.9157C89.9551,40.0621,90,40.1953,90.0427,40.3276Z"/><path class="cls-1" d="M87.8216,39.9325H80.2247c.0251.1279.052.2593.0805.3951H87.936C87.8985,40.1953,87.8591,40.0657,87.8216,39.9325Z"/><path class="cls-1" d="M51.0969,40.3276h8.3846c.0733-.13.1422-.2628.211-.3951H51.4841C51.3581,40.0683,51.2284,40.2,51.0969,40.3276Z"/><path class="cls-1" d="M71.7861,40.3276h7.5378c.03-.1358.0595-.2682.0871-.3951H71.8979C71.8621,40.0657,71.8227,40.1953,71.7861,40.3276Z"/><path class="cls-1" d="M100.229,40.3276H108.5c-.13-.1278-.2593-.2593-.3827-.3951H100.02C100.0877,40.0648,100.1557,40.1972,100.229,40.3276Z"/><path class="cls-1" d="M69.8073,39.9325H61.6705c-.0493.1314-.0975.2664-.1476.3951H69.68C69.7233,40.1953,69.7662,40.063,69.8073,39.9325Z"/><path class="cls-1" d="M101.4164,42.1866h9.5748c-.2308-.1225-.4543-.2539-.676-.3952h-9.1813C101.2269,41.9238,101.32,42.0561,101.4164,42.1866Z"/><path class="cls-1" d="M69.1769,41.7914H60.91c-.06.1342-.1208.2629-.1816.3952h8.3024Q69.1062,41.9882,69.1769,41.7914Z"/><path class="cls-1" d="M48.5414,42.1866h9.7437c.0966-.13.1914-.2628.2843-.3952H49.2443C49.0154,41.9345,48.7793,42.0641,48.5414,42.1866Z"/><path class="cls-1" d="M71.2273,42.1866h7.637c.0357-.1341.0706-.2664.1046-.3952H71.3515C71.31,41.9228,71.2693,42.0561,71.2273,42.1866Z"/><path class="cls-1" d="M88.3706,41.7914H80.6343c.0321.13.0644.2611.0983.3952H88.494C88.4528,42.0561,88.4117,41.9228,88.3706,41.7914Z"/><path class="cls-1" d="M90.6883,42.1866h8.3c-.0608-.1323-.1216-.26-.1824-.3952H90.5416C90.59,41.9228,90.6382,42.0543,90.6883,42.1866Z"/><path class="cls-1" d="M68.4392,43.6576H60.0171c-.07.1349-.1395.2646-.2092.3952H68.264C68.323,43.9213,68.382,43.789,68.4392,43.6576Z"/><path class="cls-1" d="M91.2784,43.6576c.0573.1314.1145.2637.1753.3952h8.355l-.1323-.3952Z"/><path class="cls-1" d="M70.58,44.0528h7.7453c.0411-.1333.0814-.2656.1207-.3952H70.7274C70.6791,43.7908,70.629,43.9205,70.58,44.0528Z"/><path class="cls-1" d="M88.9965,43.6576H81.13c.0358.13.075.2619.1144.3952h7.9008C89.0948,43.9205,89.0448,43.7916,88.9965,43.6576Z"/><path class="cls-1" d="M89.7118,45.52H81.7055c.0429.1306.0876.2621.1323.3953H89.871C89.8174,45.7857,89.7655,45.6506,89.7118,45.52Z"/><path class="cls-1" d="M69.8539,45.9153h7.8685c.0447-.1305.0931-.2673.1351-.3953H70.013C69.9593,45.6515,69.9075,45.7857,69.8539,45.9153Z"/><path class="cls-1" d="M67.5656,45.52H58.9844c-.0814.136-.16.2648-.2405.3953h8.6224C67.4333,45.7848,67.5,45.6524,67.5656,45.52Z"/><path class="cls-1" d="M100.8388,45.9153l-.1323-.3953h-8.559c.0662.1334.1342.2638.1985.3953Z"/><path class="cls-1" d="M102.0638,47.8271l-.27-.3953H93.16c.075.1324.152.2647.2253.3953Z"/><path class="cls-1" d="M90.5291,47.4318h-8.144c.0465.1207.093.24.1412.3621a.2554.2554,0,0,0,.0126.0332H90.71C90.6489,47.6965,90.5881,47.5642,90.5291,47.4318Z"/><path class="cls-1" d="M69.0178,47.8271h8.0269c.05-.136.0948-.2629.143-.3953h-7.99C69.1376,47.5642,69.0786,47.6965,69.0178,47.8271Z"/><path class="cls-1" d="M66.5624,47.4318H57.7558c-.093.1332-.1869.2709-.2763.3953h8.8639C66.4149,47.6991,66.4873,47.5668,66.5624,47.4318Z"/><path class="cls-1" d="M83.12,49.2774c.0555.1332.1092.2655.1628.3961H91.6c-.0661-.1315-.1341-.2621-.2-.3961Z"/><path class="cls-1" d="M68.1281,49.6735h8.2c.0527-.1315.1064-.2621.1591-.3961H68.3275C68.2613,49.4124,68.1951,49.5411,68.1281,49.6735Z"/><path class="cls-1" d="M56.3653,49.2774c-.1332.1618-.2422.2879-.3371.3961h9.2055c.0831-.1324.1654-.2611.2485-.3961Z"/><path class="cls-1" d="M103.2084,49.2774H94.2506c.0841.134.1663.2637.2486.3961h9.0454Z"/><path class="cls-1" d="M67.1177,51.5843h8.4051c.0573-.1315.1153-.26.1735-.3953h-8.36C67.2625,51.3241,67.19,51.4537,67.1177,51.5843Z"/><path class="cls-1" d="M92.3872,51.189H83.923c.0573.1351.1145.2638.1717.3953H92.52Z"/><path class="cls-1" d="M66.0321,53.4638h8.63c.0617-.1306.1243-.26.1878-.3961H66.2682C66.1886,53.2009,66.11,53.336,66.0321,53.4638Z"/><path class="cls-1" d="M93.4083,53.0677H84.7546c.0625.1351.1216.2655.1824.3961h8.6037Z"/><path class="cls-1" d="M94.5957,54.9794H85.6505c.0627.1351.127.2691.19.3961h8.922Z"/><path class="cls-1" d="M64.8215,55.3755H73.71c.0661-.1278.1341-.2593.2038-.3961H65.0808C64.9923,55.1153,64.9055,55.2485,64.8215,55.3755Z"/><path class="cls-1" d="M63.693,57.1l-.0616.1869h9.0309c.0672-.1162.1422-.2468.2272-.3961H63.8226C63.777,56.9653,63.735,57.0334,63.693,57.1Z"/><path class="cls-1" d="M86.5966,56.8912c.0733.1448.1412.2762.2039.3961h9.1472l-.1985-.3961Z"/><path class="cls-1" d="M98.1653,34.5451H105.12c-.0448-.1314-.0876-.2629-.1306-.3952H98.0758C98.1045,34.2805,98.1349,34.4128,98.1653,34.5451Z"/><path class="cls-1" d="M71.4472,34.15H63.271c-.0269.1288-.0546.262-.0823.3952h8.1834C71.3971,34.4128,71.424,34.2822,71.4472,34.15Z"/><path class="cls-1" d="M88.3456,34.5451H96.54c-.0287-.1332-.0572-.2664-.0823-.3952H88.2687C88.2919,34.2822,88.3205,34.4128,88.3456,34.5451Z"/><path class="cls-1" d="M73.0066,34.15c-.0169.1323-.0375.2629-.0554.3952H86.7647c-.0179-.1323-.0394-.2629-.0572-.3952Z"/><path class="cls-1" d="M54.5172,34.5451h7.0441c.03-.1323.0617-.2646.0895-.3952h-7C54.6083,34.2822,54.5628,34.4137,54.5172,34.5451Z"/><path class="cls-1" d="M97.8022,32.6656h6.7939c-.0286-.1306-.0572-.2629-.0841-.3953H97.7432C97.7611,32.4009,97.7807,32.5315,97.8022,32.6656Z"/><path class="cls-1" d="M55.05,32.6656H61.927c.0215-.1341.0412-.2647.06-.3953h-6.85C55.11,32.4027,55.08,32.535,55.05,32.6656Z"/><path class="cls-1" d="M86.5161,32.27H73.1971c-.0108.1306-.0179.2647-.03.3953H86.5448C86.5322,32.535,86.5268,32.4009,86.5161,32.27Z"/><path class="cls-1" d="M88.04,32.6656h8.153c-.0233-.1341-.043-.2664-.0608-.3953H87.9968C88.0129,32.4009,88.0237,32.535,88.04,32.6656Z"/><path class="cls-1" d="M71.7181,32.27h-8.119c-.0187.1289-.0393.2612-.0608.3953h8.1352C71.69,32.535,71.7029,32.4027,71.7181,32.27Z"/><path class="cls-1" d="M55.3692,30.7539H62.164c.0116-.1359.0223-.2683.0322-.3953H55.4086C55.3961,30.491,55.3844,30.6233,55.3692,30.7539Z"/><path class="cls-1" d="M86.4142,30.3586H73.2981c-.0035.1324-.0089.2647-.0134.3953h13.142C86.4213,30.6233,86.4177,30.491,86.4142,30.3586Z"/><path class="cls-1" d="M87.8556,30.7539h8.0867c-.0142-.1359-.025-.2683-.0375-.3953H87.8306C87.8377,30.491,87.8466,30.6233,87.8556,30.7539Z"/><path class="cls-1" d="M71.8818,30.3586H63.828c-.0116.127-.0241.2594-.0384.3953h8.0672C71.8657,30.6216,71.8746,30.491,71.8818,30.3586Z"/><path class="cls-1" d="M97.57,30.7539h6.7152c-.0144-.1306-.0269-.2629-.0394-.3953H97.5375C97.5465,30.4856,97.5572,30.618,97.57,30.7539Z"/><path class="cls-1" d="M62.2651,28.8421c.0017-.1573.0017-.29.0008-.3951H55.481c.0009.0813.0045.1627.0045.2431,0,.0519-.0027.102-.0027.152Z"/><path class="cls-1" d="M97.4714,28.447c-.0018.1019-.0018.2351,0,.3951h6.7062c0-.0286-.0018-.0572-.0018-.0858,0-.1037.0054-.2057.0054-.3093Z"/><path class="cls-1" d="M71.9238,28.8421c0-.1269.0071-.2521.0054-.3809l-.0009-.0142h-7.992c0,.0268-.001.0554-.001.0858.0036.1206.0063.2235.0072.3093Z"/><path class="cls-1" d="M87.7805,28.447c0,.1323.0071.2628.0071.3951h8.0081c0-.0769.0036-.17.0072-.2709-.0018-.0456-.0036-.0867-.0036-.1242Z"/><path class="cls-1" d="M86.407,28.447H73.3026c.0036.1323.0009.2628.0027.3951H86.4035C86.407,28.71,86.4035,28.5793,86.407,28.447Z"/><path class="cls-1" d="M70.7506,20.65H62.7452c.0357.1341.0706.2647.1038.397h7.9991C70.8239,20.9449,70.7918,20.8162,70.7506,20.65Z"/><path class="cls-1" d="M106.0018,20.65h-7.309c-.0429.1332-.0822.2647-.12.397h7.2338C105.8712,20.9127,105.9355,20.78,106.0018,20.65Z"/><path class="cls-1" d="M61.0588,20.65H53.6909c.0662.1324.1323.2629.1958.397h7.2919C61.14,20.9145,61.1009,20.7822,61.0588,20.65Z"/><path class="cls-1" d="M87.1957,21.0468c.0161-.1.0393-.2306.07-.397H72.4818c.03.1717.0527.3.067.397Z"/><path class="cls-1" d="M97.0046,20.65H89c-.0411.1628-.0751.2915-.0984.397h7.9975C96.9331,20.9145,96.9671,20.7839,97.0046,20.65Z"/><path class="cls-1" d="M97.5591,18.7962H89.5026c-.0393.1351-.0769.2683-.1126.3961h8.0421C97.4732,19.0609,97.5161,18.9286,97.5591,18.7962Z"/><path class="cls-1" d="M70.2481,18.7962H62.1917c.0438.1324.0867.2647.1278.3961h8.0421C70.325,19.0645,70.2875,18.9322,70.2481,18.7962Z"/><path class="cls-1" d="M87.6624,18.7962h-7.69c-.0233.1458-.0429.2781-.06.3961h7.6549C87.5962,19.0662,87.6285,18.9322,87.6624,18.7962Z"/><path class="cls-1" d="M72.1805,19.1923h7.57c-.0169-.1171-.0366-.2477-.0608-.3961H72.0874C72.1205,18.933,72.1518,19.0662,72.1805,19.1923Z"/><path class="cls-1" d="M107.13,18.7962H99.38q-.0831.1973-.1609.3961h7.638Q106.9934,18.9913,107.13,18.7962Z"/><path class="cls-1" d="M60.3783,18.7962h-7.8q.1368.1945.2691.3961h7.69C60.4856,19.06,60.4338,18.9277,60.3783,18.7962Z"/><path class="cls-1" d="M71.72,17.3539h7.6965c-.0268-.1269-.0567-.2584-.0871-.3952H71.6108C71.6484,17.0929,71.6859,17.2261,71.72,17.3539Z"/><path class="cls-1" d="M59.4878,16.9587h-8.491c.1341.1279.2656.26.3952.3952h8.3059C59.6291,17.2216,59.56,17.09,59.4878,16.9587Z"/><path class="cls-1" d="M88.14,16.9587H80.3106c-.0277.1359-.0545.2683-.0795.3952h7.8C88.0648,17.227,88.1023,17.0919,88.14,16.9587Z"/><path class="cls-1" d="M108.7361,16.9587h-8.4606c-.0733.1314-.1431.2629-.211.3952h8.271C108.4661,17.219,108.5984,17.0866,108.7361,16.9587Z"/><path class="cls-1" d="M98.2261,16.9587h-8.16c-.043.1332-.0841.2646-.127.3952h8.1387C98.1277,17.2233,98.176,17.0875,98.2261,16.9587Z"/><path class="cls-1" d="M69.6857,16.9587H61.5283c.0509.1288.0983.2646.1475.3952h8.1368C69.7715,17.2243,69.7286,17.0919,69.6857,16.9587Z"/><path class="cls-1" d="M99.0237,15.1007H90.7169c-.0483.1313-.0984.2628-.1449.3951h8.271C98.9021,15.3617,98.9629,15.232,99.0237,15.1007Z"/><path class="cls-1" d="M111.4418,15.1007h-9.9609c-.0966.13-.1932.2619-.2862.3951h9.496C110.9375,15.3528,111.1861,15.22,111.4418,15.1007Z"/><path class="cls-1" d="M88.6925,15.1007H80.738c-.0322.1341-.0662.2655-.0966.3951h7.9295C88.612,15.3653,88.6513,15.2348,88.6925,15.1007Z"/><path class="cls-1" d="M71.1817,15.4958h7.7926c-.0331-.1287-.0689-.261-.1047-.3951h-7.81C71.1012,15.2348,71.1414,15.3653,71.1817,15.4958Z"/><path class="cls-1" d="M69.0375,15.1007H60.7352c.06.1313.1215.26.1805.3951h8.2675Q69.1108,15.2974,69.0375,15.1007Z"/><path class="cls-1" d="M58.2905,15.1007H48.3563c.2468.12.4891.253.727.3951h9.4915Q58.4367,15.296,58.2905,15.1007Z"/><path class="cls-1" d="M70.5763,13.63h7.8749c-.0385-.13-.0787-.262-.12-.3961H70.44C70.4869,13.3687,70.5307,13.4983,70.5763,13.63Z"/><path class="cls-1" d="M68.2694,13.2336H59.8141c.07.1315.1387.2611.2084.3961h8.4221C68.3874,13.4974,68.3292,13.366,68.2694,13.2336Z"/><path class="cls-1" d="M89.313,13.2336H81.25c-.0394.1332-.0769.2656-.1163.3961h8.044C89.2218,13.4974,89.2665,13.3687,89.313,13.2336Z"/><path class="cls-1" d="M91.3124,13.63h8.3712l.1323-.3961H91.4876C91.4286,13.366,91.37,13.4974,91.3124,13.63Z"/><path class="cls-1" d="M67.3725,11.372H58.75c.0795.13.1591.2593.24.3952h8.5813C67.5057,11.634,67.4387,11.5025,67.3725,11.372Z"/><path class="cls-1" d="M100.846,11.372H92.389c-.068.13-.1342.2628-.2.3952h8.525Z"/><path class="cls-1" d="M69.8833,11.7672h7.98c-.0429-.1279-.0912-.2647-.135-.3952h-8.01C69.7751,11.5044,69.83,11.6357,69.8833,11.7672Z"/><path class="cls-1" d="M90.0391,11.372H81.8432c-.0447.1324-.09.2647-.1323.3952h8.1619C89.9264,11.6357,89.9819,11.5044,90.0391,11.372Z"/><path class="cls-1" d="M69.041,9.8555h8.153c-.0483-.1332-.093-.26-.1431-.3953H68.8533C68.9167,9.5917,68.98,9.724,69.041,9.8555Z"/><path class="cls-1" d="M102.071,9.46H93.4155c-.0734.1279-.1449.2593-.22.3953h8.6055Z"/><path class="cls-1" d="M66.35,9.46H57.4857c.0885.1235.1833.2612.2754.3953h8.8067C66.4935,9.72,66.42,9.5881,66.35,9.46Z"/><path class="cls-1" d="M90.7527,9.78c.0464-.1064.0929-.2145.1394-.32H82.5442c-.0053.0107-.0071.0216-.0125.0323-.0483.1215-.093.2422-.1395.363h8.3247C90.7294,9.83,90.74,9.8054,90.7527,9.78Z"/><path class="cls-1" d="M91.7451,7.6138H83.29c-.0555.13-.1092.262-.1646.3953h8.4284C91.6182,7.8758,91.6826,7.7453,91.7451,7.6138Z"/><path class="cls-1" d="M68.1191,7.9732l.0188.0359h8.355q-.08-.2-.1591-.3953H67.9465C68.0037,7.7327,68.0619,7.8526,68.1191,7.9732Z"/><path class="cls-1" d="M65.2784,7.6138H56.0345c.0948.1082.203.2334.3371.3953h9.1437C65.4214,7.8508,65.3428,7.72,65.2784,7.6138Z"/><path class="cls-1" d="M103.55,7.6138H94.4867c-.0626.1046-.14.2316-.2361.3953h8.9631Z"/><path class="cls-1" d="M92.5249,5.7021h-8.423c-.0573.1314-.1145.2611-.1735.3952h8.4642Z"/><path class="cls-1" d="M67.191,6.0973h8.5116c-.0591-.135-.1163-.2638-.1745-.3952H66.9845C67.0533,5.8335,67.1222,5.9632,67.191,6.0973Z"/><path class="cls-1" d="M66.1805,4.2187h8.6752c-.0634-.135-.1252-.2647-.1877-.3952H65.9561Q66.0676,4.0179,66.1805,4.2187Z"/><path class="cls-1" d="M93.5478,3.8235H84.9424c-.0591.1305-.12.26-.1806.3952h8.6537Z"/><path class="cls-1" d="M64.8349,1.935q.1125.181.2289.3719h8.8567c-.07-.1359-.1377-.2682-.2048-.3952H64.8232Z"/><path class="cls-1" d="M94.7657,1.9117h-8.92c-.0608.127-.1252.2611-.1914.3952h8.947Z"/><path class="cls-1" d="M95.9549,0H86.8076c-.0643.12-.13.25-.2056.3952h9.1526Z"/><path class="cls-1" d="M72.8948.3952C72.8108.2468,72.7357.1163,72.6677,0h-9.031l.0555.1645c.0509.076.101.15.1546.2307Z"/><path class="cls-1" d="M105.1987,22.5133H98.18c-.03.1323-.0608.2647-.0877.3952h6.971C105.1057,22.7752,105.1522,22.6438,105.1987,22.5133Z"/><path class="cls-1" d="M86.8917,22.9085c.02-.1324.0375-.2647.0589-.3952H72.7535c.0206.13.0394.2628.06.3952Z"/><path class="cls-1" d="M88.2758,22.9085H96.47c.0268-.1305.0537-.2629.0841-.3952h-8.21C88.3188,22.6438,88.2991,22.7761,88.2758,22.9085Z"/><path class="cls-1" d="M71.3605,22.5133H63.1941c.0286.1323.0563.2647.0823.3952h8.1511C71.4052,22.7761,71.3846,22.6438,71.3605,22.5133Z"/><path class="cls-1" d="M61.5667,22.5133H54.4849c.0456.13.0939.261.1368.3952H61.657C61.6284,22.778,61.598,22.6456,61.5667,22.5133Z"/><path class="cls-1" d="M61.9333,24.62H55.0294c.03.1323.0591.2629.0859.3971h6.877Q61.9641,24.8211,61.9333,24.62Z"/><path class="cls-1" d="M71.6493,24.62H63.5437c.0215.1342.0421.2665.0608.3971h8.0949C71.6842,24.8846,71.6662,24.7522,71.6493,24.62Z"/><path class="cls-1" d="M88.0058,25.017h8.1333c.0179-.1306.0393-.2629.0608-.3971h-8.144C88.04,24.7522,88.02,24.8846,88.0058,25.017Z"/><path class="cls-1" d="M86.6913,24.62H73.0138c.0161.1323.0331.2647.0474.3971H86.6448C86.6592,24.8837,86.6771,24.7522,86.6913,24.62Z"/><path class="cls-1" d="M104.6462,24.62H97.813c-.0215.1342-.043.2665-.0608.3971h6.8063C104.5871,24.8837,104.6158,24.7522,104.6462,24.62Z"/><path class="cls-1" d="M62.1694,26.5317H55.36c.0151.1314.0259.2646.0383.3951h6.8028Q62.1881,26.7365,62.1694,26.5317Z"/><path class="cls-1" d="M86.5071,26.5317H73.2c.01.1323.0232.2628.0321.3951H86.4767C86.4857,26.7945,86.4982,26.664,86.5071,26.5317Z"/><path class="cls-1" d="M71.8416,26.5317H63.7958c.0135.1358.0268.2691.0385.3951h8.04C71.8666,26.7945,71.8514,26.664,71.8416,26.5317Z"/><path class="cls-1" d="M87.8341,26.9268h8.0725c.0125-.1269.025-.2584.0393-.3951H87.8645C87.8556,26.664,87.8413,26.7945,87.8341,26.9268Z"/><path class="cls-1" d="M104.31,26.5317H97.5715c-.0124.1358-.0233.2682-.0321.3951h6.7294C104.2814,26.7963,104.2938,26.6631,104.31,26.5317Z"/><path class="cls-1" d="M38.2013,64.5175s-.1734.0572-.0581.1717c.1127.1162.32.1681.3889.4685.0725.3.1047.549.1047.549l.0187,5.7084a2.1829,2.1829,0,0,1-.1457.7207c-.1145.2-.3657.1377-.3434.2807.0251.1395.1985.1538.1985.1538l4.61-.025a5.3343,5.3343,0,0,0,.1-.617c.0805-.5436.1734-1.039-.0089-1.0157-.2263.0285-.0984.2-.4006.3862a1.1568,1.1568,0,0,1-.6367.1681l-1.5612.0322a.693.693,0,0,1-.3737-.1251c-.0895-.0788-.085-.4006-.085-.4006l-.0116-2.0817s1.2447-.025,1.6649.0071a1.054,1.054,0,0,1,.7261.2289c.1073.1021.2021.3059.3156.297.0787-.0054.1118-.1771.1118-.1771l-.0125-1.8939s-.0179-.1537-.1323-.1108c-.1145.0412-.2514.2378-.3488.3523a.8536.8536,0,0,1-.4292.1967l-1.9064.0376s-.0375-1.665-.0277-2.16c.0027-.09.1512-.12.1512-.12l1.7007.0054s.4926-.0143.6116.093c.1663.1485.2816.4221.4739.4275.1269,0,.12-.1986.12-.1986L43,64.7034s.0108-.1448-.0689-.1859a1.45,1.45,0,0,0-.3943-.0287Z"/><path class="cls-1" d="M44.47,64.5577l2.1853-.0036s.0912-.0214.0948.068c.0035.1341-.1511.15-.3076.3112-.1574.152-.1851.8173-.1851.8173l.0412,4.156a1.86,1.86,0,0,0,.2306.9227,1.8654,1.8654,0,0,0,3.02.0054,2.2592,2.2592,0,0,0,.227-.9782c.0573-.7815-.0437-4.444-.0437-4.444s-.06-.4918-.2361-.5668c-.2262-.0984-.2906-.1932-.2477-.2809a.1235.1235,0,0,1,.1485-.075l2.0994.0054a.1166.1166,0,0,1,.0787.1448c-.0438.1466-.2217.0894-.338.3344a2.3389,2.3389,0,0,0-.1475.6473l-.0062,4.3135a2.7157,2.7157,0,0,1-.4383,1.5559,2.9314,2.9314,0,0,1-2.4687,1.2036,3.2027,3.2027,0,0,1-2.5689-.9819,2.35,2.35,0,0,1-.6215-1.504l-.0778-4.4422a2.3859,2.3859,0,0,0-.1618-.7511c-.1028-.2021-.3514-.1949-.3729-.34A.0978.0978,0,0,1,44.47,64.5577Z"/><path class="cls-1" d="M53.4074,65.0254c-.134-.24-.3916-.245-.3854-.397.0054-.118.178-.127.178-.127l3.4408.0161a2.622,2.622,0,0,1,1.7275.9,2.3725,2.3725,0,0,1,.4274,1.5273,2.1952,2.1952,0,0,1-.7494,1.5468,3.393,3.393,0,0,1-.9.4739.2824.2824,0,0,0,.0376.127c.3442.5008,2.06,2.9526,2.06,2.9526l.6259.5079a9.7,9.7,0,0,1-1.6389-.0036,1.5293,1.5293,0,0,1-.659-.5848l-2.0646-3.1207s-.3372-.4292-.2325-.6116c.0661-.1144.634.0769,1.2331-.1216a1.2264,1.2264,0,0,0,.9083-1.1963,1.279,1.279,0,0,0-.8511-1.3,3.5128,3.5128,0,0,0-1.6284-.03.2335.2335,0,0,0-.0634.2181l.0572,5.7012a1.2282,1.2282,0,0,0,.2235.6259c.2.2307.2754.1574.2746.29,0,.118-.1583.1234-.1583.1234l-2.0566.0018a.132.132,0,0,1-.1126-.152c.016-.1038.261-.1055.3755-.3631a1.3449,1.3449,0,0,0,.1037-.5364l-.0393-5.8A1.5313,1.5313,0,0,0,53.4074,65.0254Z"/><path class="cls-1" d="M97.6323,64.5425s-.1734.0572-.059.1717c.1145.1163.32.102.39.4041a5.5432,5.5432,0,0,1,.1055.549l.0178,5.71a2.1846,2.1846,0,0,1-.1465.7189c-.1128.2021-.3649.1377-.3417.2808.0251.1395.1985.1537.1985.1537l4.5657-.025a5.4322,5.4322,0,0,0,.1019-.6187c.0787-.5419.1734-1.0373-.0125-1.014-.2235.03-.0948.1985-.3988.3863a1.0272,1.0272,0,0,1-.5919.1681l-1.5631.03a.6806.6806,0,0,1-.3719-.1234c-.09-.0769-.0859-.4024-.0859-.4024l-.0125-2.0816s1.2446-.0233,1.6668.009a1.0589,1.0589,0,0,1,.726.2289c.1073.1.1592.3058.2718.2986.0787-.0072.1127-.1806.1127-.1806l-.0125-1.8921s-.0161-.1538-.1323-.1091c-.1145.0412-.2093.2361-.3094.3505a.8344.8344,0,0,1-.4257.1968l-1.9063.0393S99.38,66.19,99.39,65.6942c.0036-.0894.152-.12.152-.12l1.6971.0017s.4954-.0107.6152.0966c.1645.1485.2378.42.431.4274.1252,0,.118-.1985.118-.1985l-.0144-1.1713s.0108-.1466-.07-.1878a1.1635,1.1635,0,0,0-.35-.0286Z"/><path class="cls-1" d="M114.7037,64.55s-.1716.0537-.0572.1717c.1109.1127.32.102.3881.4024a5.3008,5.3008,0,0,1,.1037.549l.02,5.71a2.1918,2.1918,0,0,1-.1467.7207c-.1145.1985-.3648.1342-.3415.279.025.14.1966.152.1966.152l4.5674-.025s.0143-.025.1038-.6152c.0786-.5436.1717-1.039-.0126-1.014-.2253.0269-.0947.1986-.4005.3828a1.0369,1.0369,0,0,1-.5937.1717l-1.5613.0268a.6568.6568,0,0,1-.37-.1234c-.0912-.0751-.0877-.3988-.0877-.3988l-.0125-2.0817s1.2447-.025,1.6685.0072a1.0494,1.0494,0,0,1,.7243.2289c.1073.0984.1609.304.2718.3.0787-.009.1127-.1807.1127-.1807l-.0108-1.892s-.02-.1556-.1341-.1127-.2092.2379-.3076.3523a.8411.8411,0,0,1-.4309.1949l-1.9011.0394s-.0411-1.6023-.03-2.0959c0-.0912.152-.12.152-.12l1.699.0037s.4953-.0144.6134.0965c.1645.1448.2378.4221.4309.4238.127,0,.1181-.1985.1181-.1985l-.0143-1.1713s.0107-.1431-.07-.1843a1.1575,1.1575,0,0,0-.3541-.0321Z"/><path class="cls-1" d="M74.499,66.5651a.0856.0856,0,0,1-.07-.0233.1241.1241,0,0,1-.0447-.075,1.9251,1.9251,0,0,0-.5579-1.0909,1.4941,1.4941,0,0,0-1.1374-.304,1.7368,1.7368,0,0,0-1.0945.3,1.029,1.029,0,0,0-.3826.8566.8776.8776,0,0,0,.4006.7619,4.6875,4.6875,0,0,0,1.4521.7511,4.24,4.24,0,0,1,1.6809,1.0049,2.0855,2.0855,0,0,1,.5187,1.4414,2.1962,2.1962,0,0,1-.8495,1.817,3.5807,3.5807,0,0,1-2.2926.6706,4.5227,4.5227,0,0,1-1.06-.1072,4.5958,4.5958,0,0,1-.7976-.2987.2741.2741,0,0,1-.1144-.093.3571.3571,0,0,1-.05-.1431l-.02-1.166a.5961.5961,0,0,1,.034-.1627c.0125-.0447.07-.1252.0966-.1287l.1-.0752a.1077.1077,0,0,1,.0787.0179.1215.1215,0,0,1,.0555.0661,2.1257,2.1257,0,0,0,.6438,1.007,1.6856,1.6856,0,0,0,1.1248.4541,2.125,2.125,0,0,0,1.3108-.3541,1.1221,1.1221,0,0,0,.5347-.937,1.0448,1.0448,0,0,0-.3862-.7886,3.7924,3.7924,0,0,0-1.2054-.6457A5.0745,5.0745,0,0,1,70.54,68.2032a2.1652,2.1652,0,0,1-.592-1.5362,1.9964,1.9964,0,0,1,.8226-1.6184,3.14,3.14,0,0,1,2.0226-.6617,4.4427,4.4427,0,0,1,1.0391.1073,3.3668,3.3668,0,0,1,.7135.2629.4566.4566,0,0,1,.177.1377.3988.3988,0,0,1,.0644.2039l.02,1.2054c-.0178.0715-.0178.1287-.0661.1734a.165.165,0,0,1-.0876.0555Z"/><path class="cls-1" d="M67.5209,65.4617a4.1,4.1,0,0,0-2.97-1.1785,3.8721,3.8721,0,0,0-2.9634,1.3126,4.5556,4.5556,0,0,0-1.2106,3.21,3.8634,3.8634,0,0,0,1.2106,2.8863,4.0883,4.0883,0,0,0,2.9634,1.1785,3.891,3.891,0,0,0,2.97-1.309,4.5483,4.5483,0,0,0,1.2108-3.2065,3.8857,3.8857,0,0,0-1.2108-2.8935m-2.82,6.22a2.7082,2.7082,0,0,1-2.4463-1.2,3.7256,3.7256,0,0,1,.2762-4.1651,2.32,2.32,0,0,1,1.8518-.853A2.6778,2.6778,0,0,1,67.24,68.0119C67.487,69.8,66.6036,71.601,64.7007,71.6815Z"/><path class="cls-1" d="M80.4456,68.1049l.0591,3.4818a1.2281,1.2281,0,0,0,.2208.626c.2021.227.279.1538.2754.29,0,.12-.1574.1216-.1574.1216H78.7856a.1281.1281,0,0,1-.1109-.15c.0144-.1036.2576-.1072.3756-.3665a1.3671,1.3671,0,0,0,.1037-.5312l-.0411-3.5838"/><path class="cls-1" d="M83.7442,64.505l-2.13-.0072s-.1717-.0107-.1645.0876c.0054.1073.2557.0734.2575.2951A24.0124,24.0124,0,0,1,79.87,67.8992s-2.066-2.8828-2.0767-3.0545c-.0161-.2574.19-.1645.2235-.2986.0269-.1109-.0715-.0894-.0715-.0894s-1.7865.0125-1.9725.0411c-.1842.0287-.1037.1395.0983.1788a.5547.5547,0,0,1,.2719.1914L79.63,69.6446a.2013.2013,0,0,0,.15.0858.451.451,0,0,0,.2181-.109s3.07-4.301,3.2181-4.4995c.3738-.5042.558-.4149.6027-.4685C83.9373,64.53,83.7442,64.505,83.7442,64.505Z"/><path class="cls-1" d="M94.1165,65.51l-.0107,6.05a1.2008,1.2008,0,0,0,.2253.6277c.1985.2289.2736.1538.2736.29,0,.12-.1591.1217-.1591.1217H92.389a.1267.1267,0,0,1-.1109-.15c.0143-.1037.2593-.1073.3738-.363a1.3513,1.3513,0,0,0,.1037-.5348l-.0394-6.0981"/><path class="cls-1" d="M92.9988,65.5431h2.11s.4954-.0126.617.0948c.1609.1484.2379.42.4274.4256.127.0018.118-.1985.118-.1985l-.0143-1.1713s.0126-.1449-.0679-.1843a1.2089,1.2089,0,0,0-.3523-.0322l-2.8488.0322"/><path class="cls-1" d="M93.4941,65.5431l-1.8383.0071s-.4918-.0125-.6134.0948c-.1646.1484-.2379.42-.431.4257-.1234.0017-.118-.1985-.118-.1985l.0143-1.1714s-.0108-.1467.0679-.1878a1.2868,1.2868,0,0,1,.3559-.03l2.5484.03"/><path class="cls-1" d="M88.78,66.5705a.0955.0955,0,0,1-.0733-.0233.12.12,0,0,1-.0411-.0733,1.9281,1.9281,0,0,0-.5616-1.0909,1.4691,1.4691,0,0,0-1.1338-.3058,1.7379,1.7379,0,0,0-1.0944.3,1.035,1.035,0,0,0-.3845.8567.8867.8867,0,0,0,.4006.7636,4.739,4.739,0,0,0,1.4521.7528,4.1694,4.1694,0,0,1,1.6792,1.0033,2.0719,2.0719,0,0,1,.5222,1.44,2.2013,2.2013,0,0,1-.8494,1.817,3.5857,3.5857,0,0,1-2.2926.6742,4.4964,4.4964,0,0,1-1.0623-.1109,4.262,4.262,0,0,1-.7994-.3.2387.2387,0,0,1-.1109-.0912.3388.3388,0,0,1-.0536-.1413l-.0161-1.1678a.547.547,0,0,1,.03-.161c.0161-.0465.07-.127.1-.13l.0984-.0751a.1082.1082,0,0,1,.0769.0178.1238.1238,0,0,1,.0572.0662,2.123,2.123,0,0,0,.6438,1.0087,1.68,1.68,0,0,0,1.1267.4524,2.1018,2.1018,0,0,0,1.3072-.3541,1.1181,1.1181,0,0,0,.5383-.9334,1.0424,1.0424,0,0,0-.3881-.7923,3.8143,3.8143,0,0,0-1.2053-.6456,5.0763,5.0763,0,0,1-1.9278-1.1177,2.1638,2.1638,0,0,1-.5937-1.5362,2.0093,2.0093,0,0,1,.8262-1.6184,3.1332,3.1332,0,0,1,2.0226-.6617,4.4418,4.4418,0,0,1,1.0372.1073,3.7642,3.7642,0,0,1,.7135.2629A.4411.4411,0,0,1,89,64.902a.3824.3824,0,0,1,.0662.202l.0214,1.2089c-.0214.07-.0214.1252-.0679.17a.1793.1793,0,0,1-.0877.0554Z"/><path class="cls-1" d="M101.3145,63.8907c-.0214.0322-.0393.05-.059.0536a.0989.0989,0,0,1-.068-.0214l-1.8491-.955-.1342-.0894a.8262.8262,0,0,1-.3111-.3917.462.462,0,0,1-.0268-.1717.3656.3656,0,0,1,.07-.22.6554.6554,0,0,1,.4327-.29.6834.6834,0,0,1,.5061.1484l.0912.0823,1.5039,1.479a.1828.1828,0,0,1,.043.0661.1352.1352,0,0,1-.0321.07Z"/><path class="cls-1" d="M111.5563,64.6275s.4113-.3443.6777-.1967c.3612.1985.2719.4757.2719.4757l-.0411,6.6883a1.1281,1.1281,0,0,0,.1555.55c.1288.1806.2522.19.2468.3192-.0036.0886-.0644.0993-.0644.0993h-1.8706s-.1162,0-.0983-.14c.02-.1368.2486.0071.41-.406a2.3475,2.3475,0,0,0,.1252-.582l.0465-4.2232-2.3123,4.5943a.5008.5008,0,0,1-.47.2771c-.4345-.0026-.4559-.78-.4559-.78"/><path class="cls-1" d="M112.0659,64.395l.828.0071s.1574.0573.0537.1708c-.1019.1136-.2933.1011-.3541.3988a5.3389,5.3389,0,0,0-.0948.5446l-.0035.4506"/><path class="cls-1" d="M106.02,64.7607c-.1377-.11-.5794-.4775-.8494-.33-.3595.1985-.2683.4757-.2683.4757l.0375,6.6883a1.1065,1.1065,0,0,1-.1555.55c-.1288.1806-.2522.19-.245.3192.0018.0886.0626.0993.0626.0993h1.8723s.1145,0,.0966-.14c-.0161-.1368-.2468.0071-.41-.406a2.3431,2.3431,0,0,1-.1216-.582l-.0215-4.1875,2.2873,4.6068a.3879.3879,0,0,0,.4381.2218c.4006-.0072.5419-.9631.5419-.9631"/><path class="cls-1" d="M105.3329,64.386l-.828.0054s-.1556.059-.0537.1726c.1055.1135.29.101.3577.3988.0626.296.093.5445.093.5445l.0036.4525"/></svg>